<?xml version="1.0" encoding="UTF-8"?>
<svg version="1.1" xmlns="http://www.w3.org/2000/svg" width="1832" height="1261">
<path d="M0 0 C0 351.78 0 703.56 0 1066 C-43.95587708 1067.99799441 -87.99873739 1067 -132 1067 C-132 913.88 -132 760.76 -132 603 C-192.72 603 -253.44 603 -316 603 C-399.27393617 602.41356383 -399.27393617 602.41356383 -435 602 C-435.29406738 602.75958008 -435.58813477 603.51916016 -435.89111328 604.30175781 C-441.03948455 616.82923453 -450.08706835 628.1203053 -458 639 C-458.56944336 639.78487793 -459.13888672 640.56975586 -459.72558594 641.37841797 C-466.85479694 651.18551669 -474.12824777 660.85575276 -481.68212891 670.33935547 C-483.01868234 672.02354155 -484.34487521 673.71538011 -485.66796875 675.41015625 C-491.69206939 683.12444866 -497.82727661 690.74190057 -504.01171875 698.328125 C-506.35721533 701.20612454 -508.68601547 704.09655836 -511 707 C-519.56993205 717.744122 -528.2894297 728.3698781 -537 739 C-538.50014281 740.83321648 -540.00014082 742.66655146 -541.5 744.5 C-542.24894531 745.41523437 -542.99789063 746.33046875 -543.76953125 747.2734375 C-545.20499935 749.02817784 -546.63993796 750.78335155 -548.07421875 752.5390625 C-553.31205163 758.9483885 -558.57177219 765.33943196 -563.83544922 771.72753906 C-568.56986936 777.47455272 -573.28880564 783.23392721 -578 789 C-579.03447266 790.26263672 -579.03447266 790.26263672 -580.08984375 791.55078125 C-582.39561797 794.36524345 -584.69838519 797.18213514 -587 800 C-587.49016602 800.59973633 -587.98033203 801.19947266 -588.48535156 801.81738281 C-594.67466964 809.39481659 -600.81941862 817.00041558 -606.83764648 824.71459961 C-609.77367353 828.4681606 -612.76334632 832.17275608 -615.78442383 835.8581543 C-621.63783006 842.9996384 -627.27324891 850.2635522 -632.7734375 857.6796875 C-635.10170744 860.8137286 -637.46650668 863.91677074 -639.8515625 867.0078125 C-648.04016169 877.62704757 -655.90147381 888.38019868 -663.34960938 899.53173828 C-665.11483638 902.17174494 -666.89289135 904.80284018 -668.671875 907.43359375 C-669.90683315 909.26783668 -671.14122109 911.10246367 -672.375 912.9375 C-672.93396973 913.76507812 -673.49293945 914.59265625 -674.06884766 915.4453125 C-678.32163539 921.80868683 -682.20217717 928.35630955 -686 935 C-589.03539885 933.51843721 -496.94176662 900.24446291 -400.26171875 815.453125 C-395.5034088 810.53109047 -391.13613134 805.46066849 -387 800 C-386.12000126 798.87381714 -385.23839161 797.74889182 -384.35546875 796.625 C-383.44450998 795.45895985 -382.53434113 794.29230211 -381.625 793.125 C-380.99839478 792.3208667 -380.99839478 792.3208667 -380.35913086 791.50048828 C-378.01144767 788.44538269 -375.91285003 785.34440231 -374 782 C-367.58008874 782.57065878 -361.98410537 784.67344909 -356 787 C-356 787.66 -356 788.32 -356 789 C-355.41911621 789.27529541 -354.83823242 789.55059082 -354.23974609 789.83422852 C-352.0612248 790.96813294 -350.15482813 792.21766764 -348.1640625 793.65234375 C-347.07351563 794.43726196 -347.07351563 794.43726196 -345.9609375 795.23803711 C-345.19007812 795.79885986 -344.41921875 796.35968262 -343.625 796.9375 C-342.4184375 797.81257202 -342.4184375 797.81257202 -341.1875 798.70532227 C-334.62687543 803.48976187 -328.22962191 808.45253707 -321.87939453 813.51074219 C-318.25121064 816.38576449 -314.59289488 819.22221353 -310.9375 822.0625 C-310.17026611 822.65893311 -309.40303223 823.25536621 -308.61254883 823.86987305 C-300.98590036 829.79464677 -293.33158979 835.68291733 -285.6640625 841.5546875 C-283.47197141 843.23372247 -281.28486205 844.91892716 -279.1015625 846.609375 C-277.06700641 848.17757188 -275.02040468 849.73028957 -272.9609375 851.265625 C-272.04570313 851.96171875 -271.13046875 852.6578125 -270.1875 853.375 C-268.97126953 854.28378906 -268.97126953 854.28378906 -267.73046875 855.2109375 C-266 857 -266 857 -266 861 C-267.31306475 863.52535252 -268.65948683 865.86033394 -270.1875 868.25 C-270.8537439 869.3013916 -270.8537439 869.3013916 -271.53344727 870.37402344 C-279.01414484 881.90574709 -288.08271716 892.23424345 -297.4453125 902.26171875 C-299.87892067 904.87021925 -302.25653947 907.51990864 -304.625 910.1875 C-310.64941524 916.88845385 -316.94692075 923.20998738 -323.79296875 929.0703125 C-325.94587288 930.9526747 -328.0361222 932.89299271 -330.12304688 934.84790039 C-335.96824739 940.30449768 -342.05538008 945.31519235 -348.38671875 950.1953125 C-350.79427201 952.05147307 -353.16865132 953.93976609 -355.51953125 955.8671875 C-391.65019869 985.44883217 -433.47723737 1010.18877534 -477 1027 C-478.12680176 1027.43908691 -479.25360352 1027.87817383 -480.41455078 1028.33056641 C-527.79561883 1046.66008896 -577.18206624 1058.51099344 -627.625 1064.3125 C-628.68324982 1064.43473938 -628.68324982 1064.43473938 -629.76287842 1064.55944824 C-676.46501041 1069.87246205 -723.05857078 1067.45751908 -769.21734619 1059.2019043 C-774.50576284 1058.25682441 -779.80053438 1057.35966946 -785.1015625 1056.48828125 C-884.61203415 1040.06727818 -884.61203415 1040.06727818 -914 1009 C-914.928125 1008.113125 -915.85625 1007.22625 -916.8125 1006.3125 C-919 1004 -919 1004 -919 1002 C-920.258125 1002.165 -921.51625 1002.33 -922.8125 1002.5 C-938.47780342 1004.12054863 -946.50079263 1000.34557133 -958.67578125 990.625 C-960.86394518 988.87807607 -963.08096026 987.19541226 -965.35546875 985.5625 C-966.41378906 984.799375 -967.47210937 984.03625 -968.5625 983.25 C-969.51253906 982.57453125 -970.46257813 981.8990625 -971.44140625 981.203125 C-974.37290111 978.67890652 -976.00219445 976.29050326 -978 973 C-986.43109315 976.13424448 -994.42047039 980.07377136 -1002.4375 984.125 C-1003.78550188 984.80277488 -1005.13356569 985.48042657 -1006.48168945 986.15795898 C-1015.86503437 990.88261985 -1025.17913151 995.72872039 -1034.45849609 1000.65429688 C-1106.4658666 1038.78154243 -1177.06329025 1061.88985984 -1259.125 1066.1875 C-1260.33869263 1066.25195816 -1260.33869263 1066.25195816 -1261.5769043 1066.31771851 C-1346.84426231 1070.74235727 -1432.56874154 1054.17923682 -1510.03466797 1018.36962891 C-1512.7158868 1017.13122634 -1515.40502438 1015.91253548 -1518.09765625 1014.69921875 C-1530.83007866 1008.89500303 -1542.90682375 1002.02171334 -1555 995 C-1555.94343262 994.45794922 -1556.88686523 993.91589844 -1557.85888672 993.35742188 C-1570.99883653 985.80734527 -1583.63745843 977.76305396 -1596 969 C-1596.76296387 968.46375 -1597.52592773 967.9275 -1598.31201172 967.375 C-1609.24354035 959.68201474 -1619.76067913 951.59182684 -1630 943 C-1630.61359375 942.48550293 -1631.2271875 941.97100586 -1631.859375 941.44091797 C-1633.66110279 939.92456 -1635.45719664 938.40189597 -1637.25 936.875 C-1638.00845215 936.23002563 -1638.00845215 936.23002563 -1638.78222656 935.57202148 C-1649.10322615 926.69354947 -1658.87809757 917.28581875 -1668.48364258 907.64672852 C-1670.32454708 905.80041754 -1672.17080272 903.95957727 -1674.01757812 902.11914062 C-1679.89056979 896.24974917 -1685.65919176 890.36540579 -1691 884 C-1691.87651188 882.98993652 -1692.75406409 881.98077457 -1693.6328125 880.97265625 C-1714.09082819 857.08359405 -1732.22442948 831.19735914 -1748 804 C-1748.37415039 803.35611328 -1748.74830078 802.71222656 -1749.13378906 802.04882812 C-1783.61647699 742.29438159 -1805.33779773 676.52399759 -1814.75 608.25 C-1814.85123169 607.52614105 -1814.95246338 606.8022821 -1815.0567627 606.05648804 C-1818.36304648 582.1159505 -1819.38137006 558.21362586 -1819.3125 534.0625 C-1819.31057437 532.71479301 -1819.30873407 531.36708589 -1819.30697632 530.01937866 C-1819.26756584 509.20367502 -1818.64776916 488.65976943 -1816 468 C-1815.91278687 467.30398682 -1815.82557373 466.60797363 -1815.73571777 465.89086914 C-1813.20190805 445.70003514 -1809.69547244 425.81011666 -1805 406 C-1804.75056641 404.92862793 -1804.50113281 403.85725586 -1804.24414062 402.75341797 C-1785.92754551 324.97851829 -1749.43628162 251.14619192 -1698 190 C-1697.55333984 189.46842285 -1697.10667969 188.9368457 -1696.64648438 188.38916016 C-1685.87151439 175.5984397 -1674.55527514 163.46798229 -1662.75 151.625 C-1662.2781427 151.15046387 -1661.8062854 150.67592773 -1661.32012939 150.18701172 C-1655.72289548 144.56568222 -1650.03949774 139.14233191 -1644 134 C-1642.91676439 133.05085191 -1641.83468308 132.10038441 -1640.75390625 131.1484375 C-1631.81038755 123.34720704 -1622.51792969 116.08507668 -1613 109 C-1611.93289795 108.20142578 -1611.93289795 108.20142578 -1610.84423828 107.38671875 C-1592.16411584 93.45606722 -1572.43106013 81.1882655 -1552 70 C-1551.05350586 69.48083008 -1550.10701172 68.96166016 -1549.13183594 68.42675781 C-1511.56304684 47.98327185 -1471.31270682 32.91479179 -1430 22 C-1429.01574036 21.73926697 -1429.01574036 21.73926697 -1428.01159668 21.4732666 C-1388.71772352 11.10818779 -1348.55048542 4.71223403 -1308 2 C-1307.1970752 1.94215332 -1306.39415039 1.88430664 -1305.56689453 1.82470703 C-1226.92004311 -3.69580722 -1142.34317857 5.74025676 -1070.25097656 38.96337891 C-1068.04786434 39.97795748 -1065.83417017 40.96538906 -1063.6171875 41.94921875 C-1040.77942215 52.22229811 -1019.79114879 65.97902716 -1000.61328125 82.02734375 C-1000.01926514 82.50719727 -999.42524902 82.98705078 -998.81323242 83.48144531 C-997 85 -997 85 -995.1340332 86.83886719 C-993.1284886 88.66636004 -991.50575662 89.94992827 -989 91 C-985.1390038 90.65782548 -982.01430354 89.06653291 -978.5625 87.375 C-977.5324585 86.90715088 -976.50241699 86.43930176 -975.44116211 85.95727539 C-972.55862783 84.63283334 -969.69756805 83.27137543 -966.84277344 81.8883667 C-964.96393225 80.98261241 -963.07893172 80.09111692 -961.19140625 79.20361328 C-946.44342215 72.26599808 -931.88825883 64.98303242 -917.43670654 57.44924927 C-893.61964238 45.03940179 -869.40497742 33.80655543 -844 25 C-843.20867676 24.7225293 -842.41735352 24.44505859 -841.60205078 24.15917969 C-804.79105522 11.40390628 -765.71209488 5.85408601 -727 3 C-726.10780762 2.92942383 -725.21561523 2.85884766 -724.29638672 2.78613281 C-646.66598852 -3.19883364 -566.30600757 9.12146285 -426 62 C-425.06494629 62.4655127 -424.12989258 62.93102539 -423.16650391 63.41064453 C-387.36357162 81.36632855 -355.23472283 105.39220626 -327.0078125 133.7265625 C-325.72448205 135.00854004 -324.44085533 136.29022106 -323.1569519 137.57162476 C-320.49331004 140.23234903 -317.83323931 142.89657649 -315.17578125 145.56347656 C-311.79394237 148.95675472 -308.40313569 152.3409073 -305.00961494 155.72249794 C-302.36693183 158.35791045 -299.72908379 160.99812138 -297.09261703 163.63975143 C-295.84472639 164.88896181 -294.59538861 166.13672856 -293.34448624 167.38292313 C-286.42840696 174.27864863 -279.87218644 181.17287975 -274 189 C-262.36929858 178.78064799 -251.60460082 168.16793744 -242 156 C-240.97239426 154.73637294 -239.94227465 153.47478761 -238.91015625 152.21484375 C-232.11775271 143.92292272 -225.48494808 135.53506968 -219 127 C-217.72547796 125.3266572 -216.4507196 123.65349438 -215.17578125 121.98046875 C-213.07952791 119.22939948 -210.98341633 116.47822327 -208.88793945 113.7265625 C-200.71202885 102.9913959 -192.46991862 92.31003499 -184.18017578 81.66259766 C-178.68498768 74.60206811 -173.22639231 67.51416098 -167.78369141 60.41308594 C-158.9983808 48.95216985 -150.18168926 37.5122701 -140.97265625 26.38671875 C-139.7976214 24.96504293 -138.63417685 23.53345672 -137.49609375 22.08203125 C-127.07705731 9.11018247 -113.07478908 1.31907915 -96.67578125 -0.53515625 C-64.98309828 -3.58586615 -31.31285665 -0.56932467 0 0 Z M-938 226 C-938.96421875 226.77730469 -939.9284375 227.55460937 -940.921875 228.35546875 C-949.36226028 235.2637535 -957.09029451 242.87447981 -964.8125 250.5625 C-965.61605927 251.35829468 -965.61605927 251.35829468 -966.43585205 252.17016602 C-973.43111946 259.11212849 -979.86501437 266.27140761 -986 274 C-986.86326474 275.0276538 -987.73167022 276.0510577 -988.609375 277.06640625 C-1032.76335257 328.55252243 -1079 416.28205123 -1079 486 C-1070.19856919 486.78057702 -1061.46395839 487.16812927 -1052.62992859 487.23414612 C-1050.70829013 487.25380374 -1050.70829013 487.25380374 -1048.74783069 487.27385849 C-1045.23134164 487.30971534 -1041.71482438 487.34018585 -1038.19827712 487.36969459 C-1034.39134998 487.40261258 -1030.58447331 487.4406428 -1026.77758789 487.47802734 C-1020.19494207 487.54198238 -1013.61227318 487.60275511 -1007.02957726 487.66131783 C-997.51230277 487.74599259 -987.99507897 487.83554221 -978.47786031 487.92625164 C-963.03385514 488.07331875 -947.58981642 488.21648635 -932.14575195 488.35717773 C-917.15028959 488.49379087 -902.15484619 488.6322554 -887.15942383 488.77319336 C-886.23388361 488.78189162 -885.30834339 488.79058989 -884.3547565 488.79955173 C-879.7112283 488.84320316 -875.06770045 488.88689081 -870.42417276 488.93059647 C-831.94949983 489.29267971 -793.47477029 489.64842433 -755 490 C-754.98062913 496.71907578 -754.96770368 503.43814411 -754.95880127 510.15724182 C-754.9550813 512.43241139 -754.95000377 514.70757923 -754.94342041 516.98274231 C-754.66446136 616.03098136 -774.30774794 711.37323484 -848 834 C-857.58513571 846.65633424 -867.01233092 859.25199447 -874.6875 873.1875 C-875.0390918 873.81148682 -875.39068359 874.43547363 -875.75292969 875.07836914 C-877.53030439 878.37651327 -877.53030439 878.37651327 -877.86621094 882.03271484 C-876.64453203 884.80731705 -875.1518831 885.32411073 -872.44140625 886.62109375 C-871.02504883 887.31235352 -871.02504883 887.31235352 -869.58007812 888.01757812 C-868.58427734 888.48615234 -867.58847656 888.95472656 -866.5625 889.4375 C-865.60150391 889.90220703 -864.64050781 890.36691406 -863.65039062 890.84570312 C-861.71880306 891.77958599 -859.78379805 892.70643302 -857.84545898 893.6262207 C-855.09925672 894.95207914 -852.39977794 896.34928462 -849.6953125 897.7578125 C-843.90960349 900.64922906 -838.48409611 902.24235962 -832 901 C-828.68545079 898.22760754 -827.00520922 894.77942619 -825 891 C-823.75013512 889.06959428 -822.47847263 887.15316004 -821.1875 885.25 C-820.51589844 884.239375 -819.84429688 883.22875 -819.15234375 882.1875 C-811.49271149 870.84401556 -803.26750986 859.90409903 -795 849 C-794.57219238 848.4342627 -794.14438477 847.86852539 -793.70361328 847.28564453 C-788.24298033 840.07483648 -782.61551219 833.02026057 -776.89135742 826.01831055 C-773.33064434 821.65783713 -769.83245686 817.25513615 -766.375 812.8125 C-762.41155217 807.7262543 -758.31009078 802.78365139 -754.11791992 797.88500977 C-750.40089052 793.52205524 -746.85649053 789.0416221 -743.34033203 784.51611328 C-739.60649791 779.72789607 -735.75366433 775.04630832 -731.875 770.375 C-727.2217846 764.75986673 -722.72478035 759.0741934 -718.390625 753.20703125 C-710.45420171 742.49561073 -702.12033222 732.07498878 -693.68237305 721.7565918 C-690.25724504 717.56418508 -686.88978771 713.33285495 -683.5625 709.0625 C-678.87941383 703.05699909 -674.04918148 697.18149453 -669.19165039 691.31665039 C-665.56310874 686.92598102 -661.99841283 682.49489895 -658.5 678 C-653.76866679 671.92202265 -648.89119525 665.97277719 -643.98266602 660.03735352 C-640.32030577 655.60790114 -636.69747855 651.15166657 -633.12109375 646.65234375 C-630.26804033 643.08471342 -627.38349326 639.54304387 -624.5 636 C-620.35774334 630.90919767 -616.23505026 625.8043999 -612.14453125 620.671875 C-609.90136271 617.87710764 -607.6394877 615.09824944 -605.37524414 612.32055664 C-600.71843906 606.60749951 -596.09395749 600.8755903 -591.5625 595.0625 C-586.34434478 588.37599129 -580.95442011 581.83767916 -575.55078125 575.30078125 C-567.65622293 565.74920714 -559.85446938 556.13004627 -552.23364258 546.35864258 C-547.98342633 540.93193829 -543.58987054 535.627589 -539.19384766 530.31884766 C-535.08870595 525.35064851 -531.07466183 520.32146872 -527.11328125 515.23828125 C-523.63146023 510.77910696 -520.07751928 506.38265769 -516.5 502 C-512.45017933 497.03767756 -508.44194806 492.0484598 -504.5 487 C-500.0179989 481.25989332 -495.44043443 475.60306754 -490.8359375 469.9609375 C-486.88813664 465.11505872 -483.01201102 460.21829857 -479.16625977 455.29125977 C-475.64624747 450.79336017 -472.05137401 446.36019092 -468.4375 441.9375 C-463.68919143 436.12274868 -459.06768325 430.23078868 -454.515625 424.26171875 C-451.79538852 420.7126939 -448.99277684 417.23192653 -446.1875 413.75 C-441.87594983 408.39406725 -437.66025047 402.97420968 -433.5 397.5 C-429.33973901 392.02577647 -425.12362357 386.6062865 -420.8125 381.25 C-415.95394983 375.21053044 -411.18365228 369.10965857 -406.484375 362.9453125 C-404.76363385 360.69023594 -403.0379373 358.43898526 -401.3125 356.1875 C-388.19841132 339.05393274 -375.18055915 321.85983646 -363.24853516 303.87207031 C-362.19898363 302.29835871 -361.10975632 300.75121024 -360.01171875 299.2109375 C-358.73342024 297.05854011 -358.73342024 297.05854011 -359.62109375 294.9140625 C-361.02341101 292.96750313 -362.45715076 291.15872137 -364.0625 289.375 C-365.00802734 288.32119141 -365.00802734 288.32119141 -365.97265625 287.24609375 C-366.64167969 286.50488281 -367.31070313 285.76367188 -368 285 C-368.63808594 284.26910156 -369.27617188 283.53820312 -369.93359375 282.78515625 C-375.25607137 276.73825823 -380.89934643 271.06463268 -386.61987305 265.39941406 C-390.35685645 261.68558304 -393.92766639 257.91063707 -397.3359375 253.890625 C-402.70907241 247.78593651 -408.63682474 242.24066662 -414.81640625 236.96875 C-417.59480397 234.46371878 -420.19440109 231.79458071 -422.8125 229.125 C-428.22614758 223.64708543 -433.89987187 218.71301889 -440 214 C-440.58233398 213.54657227 -441.16466797 213.09314453 -441.76464844 212.62597656 C-500.40003772 167.12199639 -573.21127582 140.88196513 -647 135 C-648.25554687 134.88914063 -649.51109375 134.77828125 -650.8046875 134.6640625 C-753.94327255 126.98573725 -858.61622702 159.73840807 -938 226 Z M-1338 137 C-1339.04655762 137.12890625 -1340.09311523 137.2578125 -1341.17138672 137.390625 C-1434.13169821 149.1864407 -1524.69320693 194.15610187 -1586 266 C-1586.91597395 267.05268648 -1587.83270388 268.10471543 -1588.75 269.15625 C-1595.46863844 276.884154 -1601.92367503 284.75437449 -1608 293 C-1608.45842285 293.62181152 -1608.9168457 294.24362305 -1609.38916016 294.88427734 C-1669.40398321 376.87407114 -1695.4423426 479.35353433 -1681.75402832 602.5090332 C-1673.04990559 657.45284239 -1653.0380611 711.32536072 -1621 757 C-1620.20553323 758.15351091 -1619.41126343 759.3071575 -1618.6171875 760.4609375 C-1610.28351331 772.45301048 -1601.09213987 783.85549196 -1591.1953125 794.59375 C-1589.34914221 796.61731032 -1587.55735617 798.67146289 -1585.76953125 800.74609375 C-1581.8792624 805.20235207 -1577.75536305 809.39228068 -1573.5625 813.5625 C-1572.49418945 814.63661133 -1572.49418945 814.63661133 -1571.40429688 815.73242188 C-1566.76688844 820.36140631 -1561.97462996 824.73763609 -1557 829 C-1556.02417969 829.85722656 -1555.04835938 830.71445312 -1554.04296875 831.59765625 C-1534.95299839 848.07613956 -1513.88771934 862.49345544 -1492 875 C-1491.21737793 875.44811035 -1490.43475586 875.8962207 -1489.62841797 876.35791016 C-1442.7517107 903.00162433 -1391.27826951 920.75531373 -1338 929 C-1336.73978027 929.19754883 -1335.47956055 929.39509766 -1334.18115234 929.59863281 C-1297.49941306 935.18647675 -1257.6150676 936.38317369 -1221 930 C-1219.77990234 929.79600586 -1218.55980469 929.59201172 -1217.30273438 929.38183594 C-1172.860273 921.87824292 -1129.76063612 907.08673031 -1094 879 C-1099.37995119 867.53362004 -1105.61269771 857.07470627 -1112.75 846.625 C-1113.73658064 845.16440179 -1114.72216687 843.70313142 -1115.70678711 842.24121094 C-1118.05797647 838.75361704 -1120.41810925 835.27221594 -1122.78216553 831.79333496 C-1163.38531455 772.00274083 -1193.51836026 704.87205446 -1204.48841858 633.0113678 C-1204.84354998 630.92092586 -1205.25198906 628.83912008 -1205.70178223 626.76698303 C-1208.20581981 614.94764175 -1208.74731683 603.26522398 -1209.16796875 591.21484375 C-1209.2524969 589.02507731 -1209.33790909 586.83534485 -1209.42414856 584.64564514 C-1209.60188862 580.06958821 -1209.77173114 575.49333292 -1209.93530273 570.91674805 C-1210.14172406 565.14774089 -1210.36365319 559.37946673 -1210.59076309 553.61124134 C-1213.34234289 483.50785081 -1213.34234289 483.50785081 -1209.375 461.9375 C-1209.09916313 460.33378191 -1208.82503683 458.72976881 -1208.55249023 457.12548828 C-1207.74093199 452.40948324 -1206.8753387 447.70451059 -1206 443 C-1205.74630816 441.61447069 -1205.49288031 440.22889301 -1205.23974609 438.84326172 C-1192.98505581 372.21265791 -1169.60198321 309.63451396 -1134 252 C-1133.44828125 251.09942871 -1132.8965625 250.19885742 -1132.328125 249.27099609 C-1125.32763475 237.86270954 -1117.90735576 226.79968956 -1110 216 C-1109.56445801 215.40461426 -1109.12891602 214.80922852 -1108.68017578 214.19580078 C-1101.49627265 204.44878265 -1093.57532329 195.54245462 -1085 187 C-1136.76112902 162.10979113 -1190.70030387 143.53264522 -1248 137 C-1248.87495117 136.89703613 -1249.74990234 136.79407227 -1250.65136719 136.68798828 C-1279.26646629 133.46840817 -1309.42173906 133.40266803 -1338 137 Z M-133 236 C-134.99633516 238.35042518 -136.94503908 240.7208123 -138.875 243.125 C-139.7568396 244.21663452 -139.7568396 244.21663452 -140.65649414 245.33032227 C-144.73684019 250.39343291 -148.75702752 255.50145477 -152.7565918 260.62841797 C-157.08244402 266.1510815 -161.54664821 271.55659209 -166.01708984 276.96240234 C-169.67957543 281.39190062 -173.30244999 285.84824354 -176.87890625 290.34765625 C-179.73195967 293.91528658 -182.61650674 297.45695613 -185.5 301 C-189.64225666 306.09080233 -193.76494974 311.1956001 -197.85546875 316.328125 C-200.09863729 319.12289236 -202.3605123 321.90175056 -204.62475586 324.67944336 C-209.28155764 330.39249644 -213.90621251 336.12427987 -218.4375 341.9375 C-223.19238838 348.03360088 -228.09029965 354.00475987 -233.01708984 359.96240234 C-236.67957543 364.39190062 -240.30244999 368.84824354 -243.87890625 373.34765625 C-246.73195967 376.91528658 -249.61650674 380.45695613 -252.5 384 C-256.01580965 388.32090365 -259.5272445 392.64434055 -263 397 C-267.03992386 402.06702315 -271.13271376 407.09054617 -275.22265625 412.1171875 C-278.78939633 416.50320198 -282.33207265 420.9071901 -285.85546875 425.328125 C-288.09917897 428.12356724 -290.36157733 430.90311197 -292.62646484 433.68139648 C-299.17639156 441.7175287 -305.62188015 449.82708331 -312 458 C-312.73863281 458.93585938 -313.47726562 459.87171875 -314.23828125 460.8359375 C-314.88152344 461.65320313 -315.52476563 462.47046875 -316.1875 463.3125 C-317.01314453 464.35857422 -317.01314453 464.35857422 -317.85546875 465.42578125 C-319.09800873 466.81041907 -319.09800873 466.81041907 -319 468 C-257.29 468 -195.58 468 -132 468 C-132 391.44 -132 314.88 -132 236 C-132.33 236 -132.66 236 -133 236 Z M-993.79870331 619.71162868 C-1001.22916612 619.82362941 -1008.65968548 619.92723926 -1016.09036237 620.02398384 C-1021.92230826 620.10042502 -1027.75411858 620.18425592 -1033.58587855 620.2737571 C-1037.03720379 620.3265629 -1040.48850466 620.3762854 -1043.93998146 620.41814804 C-1047.74510045 620.46613865 -1051.54984303 620.52620558 -1055.35473633 620.58935547 C-1056.48218765 620.60086639 -1057.60963898 620.61237732 -1058.77125549 620.62423706 C-1059.80292847 620.6438147 -1060.83460144 620.66339233 -1061.89753723 620.68356323 C-1062.79188886 620.69646833 -1063.68624048 620.70937344 -1064.60769367 620.7226696 C-1067.14614062 621.01694149 -1068.80624568 621.72085372 -1071 623 C-1063.99848851 653.95484669 -1054.29821594 684.15325365 -1041 713 C-1040.58540527 713.90089355 -1040.17081055 714.80178711 -1039.74365234 715.72998047 C-1028.68561688 739.43704103 -1014.15622473 761.1553876 -996 780 C-995.31808594 780.73347656 -994.63617187 781.46695313 -993.93359375 782.22265625 C-993.33675781 782.85042969 -992.73992187 783.47820312 -992.125 784.125 C-991.63257813 784.64320313 -991.14015625 785.16140625 -990.6328125 785.6953125 C-988.57906283 787.33634693 -986.46373902 788.12307594 -984 789 C-982.10283355 787.27227744 -980.20724695 785.54287266 -978.3125 783.8125 C-977.78205078 783.32974609 -977.25160156 782.84699219 -976.70507812 782.34960938 C-973.38346224 779.31328566 -970.15975227 776.20637157 -967 773 C-966.27941406 772.2884375 -965.55882812 771.576875 -964.81640625 770.84375 C-932.82342103 737.57548115 -915.85188151 688.79825138 -903.4375 645.25 C-903.11928787 644.13470917 -903.11928787 644.13470917 -902.79464722 642.99688721 C-900.5412165 635.04834221 -898.55196029 627.1166369 -897 619 C-929.27091584 618.83424752 -961.53235285 619.22502485 -993.79870331 619.71162868 Z " fill="#1F1D1D" transform="translate(1819,1)"/>
<path d="M0 0 C0.83265381 0.00523682 1.66530762 0.01047363 2.52319336 0.01586914 C3.42231445 0.0190918 4.32143555 0.02231445 5.24780273 0.02563477 C6.66609375 0.03820313 6.66609375 0.03820313 8.11303711 0.05102539 C9.06243164 0.05553711 10.01182617 0.06004883 10.98999023 0.06469727 C13.3435708 0.0765243 15.69701292 0.09384445 18.05053711 0.11352539 C21.51065147 6.856912 24.67599745 13.67436806 27.64038086 20.64868164 C28.06209564 21.63408432 28.48381042 22.619487 28.91830444 23.63475037 C30.27791325 26.81389023 31.63311497 29.99488563 32.98803711 33.17602539 C33.92492609 35.37012298 34.8620206 37.56413281 35.79931641 39.75805664 C38.12140154 45.19579854 40.43952721 50.63521763 42.75622559 56.07525635 C43.96879782 58.92165045 45.18267277 61.76748389 46.3972168 64.61303711 C48.08554294 68.56870463 49.77197863 72.52516965 51.45608521 76.4826355 C52.05903705 77.89927512 52.66244843 79.31571924 53.2663269 80.73196411 C54.08816444 82.66045887 54.90764397 84.58993614 55.72631836 86.51977539 C56.17918213 87.58518555 56.6320459 88.6505957 57.09863281 89.74829102 C58.05053711 92.11352539 58.05053711 92.11352539 58.05053711 93.11352539 C50.46053711 93.11352539 42.87053711 93.11352539 35.05053711 93.11352539 C31.05053711 85.11352539 31.05053711 85.11352539 27.05053711 75.11352539 C14.51053711 75.11352539 1.97053711 75.11352539 -10.94946289 75.11352539 C-13.25946289 80.72352539 -15.56946289 86.33352539 -17.94946289 92.11352539 C-18.94946289 93.11352539 -18.94946289 93.11352539 -21.17431641 93.22705078 C-22.61182251 93.21919556 -22.61182251 93.21919556 -24.07836914 93.21118164 C-25.63007812 93.20634766 -25.63007812 93.20634766 -27.21313477 93.20141602 C-28.30174805 93.19303711 -29.39036133 93.1846582 -30.51196289 93.17602539 C-32.15068359 93.16925781 -32.15068359 93.16925781 -33.82250977 93.16235352 C-36.53154784 93.15052366 -39.24047888 93.13404082 -41.94946289 93.11352539 C-39.94175855 86.72147448 -37.544774 80.60126911 -34.84399414 74.47290039 C-34.44720459 73.56374374 -34.05041504 72.6545871 -33.64160156 71.71788025 C-32.35195463 68.76485485 -31.05701279 65.81418478 -29.76196289 62.86352539 C-28.41406917 59.78172316 -27.06743644 56.69937193 -25.72087097 53.61698914 C-24.80874051 51.52931585 -23.89615096 49.44184308 -22.98310852 47.35456848 C-20.0042437 40.54176442 -17.04601355 33.7204006 -14.10571289 26.89086914 C-13.73282639 26.0252536 -13.35993988 25.15963806 -12.97575378 24.26779175 C-11.55616013 20.97149824 -10.13696988 17.67504046 -8.72183228 14.37683105 C-7.76458516 12.14625457 -6.80455813 9.91689378 -5.84399414 7.68774414 C-5.56265625 7.02959213 -5.28131836 6.37144012 -4.99145508 5.69334412 C-2.59856365 0.15132525 -2.59856365 0.15132525 0 0 Z M7.05053711 31.11352539 C2.10053711 42.99352539 2.10053711 42.99352539 -2.94946289 55.11352539 C4.31053711 55.11352539 11.57053711 55.11352539 19.05053711 55.11352539 C15.75053711 47.19352539 12.45053711 39.27352539 9.05053711 31.11352539 C8.39053711 31.11352539 7.73053711 31.11352539 7.05053711 31.11352539 Z " fill="#1F1D1D" transform="translate(1071.949462890625,1166.886474609375)"/>
<path d="M0 0 C12.8178301 -0.68475887 25.50716207 3.84896857 35.4765625 11.68359375 C36.65234375 13.25 36.65234375 13.25 36.625 15.015625 C35.19756439 18.29471404 33.16471822 21.10852103 31.08984375 24 C30.66509766 24.60199219 30.24035156 25.20398437 29.80273438 25.82421875 C28.75798853 27.30329714 27.70588359 28.77717259 26.65234375 30.25 C25.66234375 29.6725 24.67234375 29.095 23.65234375 28.5 C15.64862626 23.94727811 9.1365827 20.48514202 -0.34765625 21.25 C-9.42805386 23.76798382 -15.50907688 26.90762177 -20.34765625 35.25 C-23.43410305 42.95501468 -23.73801353 52.25118056 -21.5078125 60.26953125 C-18.33814442 67.21718755 -13.3132968 72.22311705 -6.53515625 75.6875 C2.58670924 77.29724097 8.53202569 75.98609542 17.65234375 73.25 C17.98234375 65 18.31234375 56.75 18.65234375 48.25 C25.91234375 48.25 33.17234375 48.25 40.65234375 48.25 C40.88333136 52.95188119 41.08163513 57.63385336 41.20166016 62.33691406 C41.251688 63.93199553 41.31974289 65.52662433 41.40673828 67.12011719 C42.10659946 80.27750737 42.10659946 80.27750737 38.60595703 85.02563477 C36.0519155 87.12708264 33.58393185 88.7279032 30.65234375 90.25 C29.51023437 90.85714844 28.368125 91.46429687 27.19140625 92.08984375 C25.74894531 92.63318359 25.74894531 92.63318359 24.27734375 93.1875 C23.30023438 93.56777344 22.323125 93.94804688 21.31640625 94.33984375 C15.18659804 96.43404509 9.53912021 96.50376342 3.08984375 96.5625 C1.53813477 96.60600586 1.53813477 96.60600586 -0.04492188 96.65039062 C-13.36072613 96.75878477 -23.70141804 91.52723509 -33.47265625 82.75 C-44.1900085 71.66752753 -45.82434915 58.44331084 -45.62109375 43.765625 C-45.17979479 30.80629104 -39.42003024 20.85727078 -30.16015625 12 C-21.11270492 4.41181502 -11.54708971 1.22964017 0 0 Z " fill="#1F1D1D" transform="translate(118.34765625,1164.75)"/>
<path d="M0 0 C6.93 0 13.86 0 21 0 C21 32.34 21 64.68 21 98 C14.07 98 7.14 98 0 98 C-0.33 96.02 -0.66 94.04 -1 92 C-1.81404297 92.63228516 -1.81404297 92.63228516 -2.64453125 93.27734375 C-3.35996094 93.82519531 -4.07539062 94.37304688 -4.8125 94.9375 C-5.52019531 95.48277344 -6.22789063 96.02804687 -6.95703125 96.58984375 C-12.67752833 100.53840866 -21.3007949 99.74417073 -28 99 C-36.32883334 96.67617948 -42.99968639 90.80202865 -47.53515625 83.54296875 C-53.59722994 72.03740032 -54.9199559 60.15549698 -51.03515625 47.59765625 C-47.4450562 38.58853725 -41.07285189 31.8714256 -32.6875 27.125 C-24.52196077 24.63381854 -17.13219617 24.40712586 -9 27 C-6.36 28.65 -3.72 30.3 -1 32 C-0.67 21.44 -0.34 10.88 0 0 Z M-28.3125 49.375 C-31.92681281 54.99726438 -32.73214476 60.44501645 -32 67 C-29.94918082 73.47627109 -26.79143024 77.13904651 -21.1875 80.875 C-17.13931891 82.3037698 -13.99673224 82.47640482 -10 81 C-5.17400132 77.82231777 -1.67466728 74.6344717 0 69 C0.64357885 62.32182466 1.08223266 55.63066574 -3 50 C-6.87496875 45.62824038 -9.49051778 43.28409233 -15.3125 42.625 C-20.9552403 43.198838 -24.39138131 45.34790513 -28.3125 49.375 Z " fill="#1F1D1D" transform="translate(1187,1162)"/>
<path d="M0 0 C6.93 0 13.86 0 21 0 C21.33 10.56 21.66 21.12 22 32 C24.64 30.35 27.28 28.7 30 27 C38.67805785 24.23308301 46.88092894 24.27700527 55.25 28.125 C63.82744054 32.88269285 69.5217545 39.88795172 72.75 49.15234375 C75.75455923 60.69068581 74.54696455 72.90156017 68.6796875 83.3515625 C63.6078225 90.5297758 57.31643657 96.04844631 49 99 C46.24774593 99.30580601 43.80058038 99.4778479 41.0625 99.4375 C40.3610083 99.43210205 39.6595166 99.4267041 38.93676758 99.42114258 C31.69117562 99.20811123 27.01971096 97.26089828 22 92 C21.67 93.98 21.34 95.96 21 98 C14.07 98 7.14 98 0 98 C0 65.66 0 33.32 0 0 Z M26 47 C20.51423973 54.0737435 20.43123903 60.30761535 21 69 C22.67120354 74.40683499 26.23092179 78.05270966 31 81 C35.38365076 82.65701999 38.91733529 82.34612384 43.1875 80.5 C47.77087559 77.90155085 51.03319356 74.10493608 52.609375 69.04296875 C54.01895384 61.6708714 53.04382587 55.38108302 49 49 C45.45127667 45.10844961 42.03886404 43.19604462 36.75 42.6875 C32.25932772 43.06172269 29.48223511 44.17446431 26 47 Z " fill="#1F1D1D" transform="translate(304,1162)"/>
<path d="M0 0 C2.39974244 2.14927567 4.73681727 4.33285527 7.01953125 6.60546875 C5.59092206 11.09655627 3.08875833 14.06716191 -0.10546875 17.41796875 C-0.80736328 18.17110352 -0.80736328 18.17110352 -1.5234375 18.93945312 C-2.669487 20.1673633 -3.82412186 21.3872509 -4.98046875 22.60546875 C-7.86803143 21.29351092 -9.94226505 19.8506485 -12.23046875 17.66796875 C-18.56458009 12.19090419 -24.71594512 11.01728041 -33.01953125 11.2578125 C-40.48784387 12.13469881 -47.06108247 15.94690007 -51.98046875 21.60546875 C-57.0865467 28.79627675 -56.75009735 37.12078271 -55.98046875 45.60546875 C-54.66606498 52.157266 -51.29738294 57.21552488 -45.92578125 61.0859375 C-38.89230911 65.20224824 -31.97533525 65.8585273 -23.98046875 64.60546875 C-17.12304167 62.1917823 -11.25305203 58.58513073 -5.98046875 53.60546875 C-1.0624579 58.30381658 3.24291481 62.94054408 7.01953125 68.60546875 C-0.62440984 77.26110793 -10.54846544 84.75984742 -22.40405273 85.82275391 C-40.18653646 86.61876451 -53.55371907 84.25531329 -67.10546875 72.10546875 C-76.23525035 62.51919807 -79.9110845 50.31926337 -80.00390625 37.32421875 C-79.34933647 22.85478161 -74.19631799 11.24467696 -63.66796875 1.29296875 C-45.69184473 -13.89164113 -18.45220797 -14.82464415 0 0 Z " fill="#1F1D1D" transform="translate(624.98046875,1175.39453125)"/>
<path d="M0 0 C2.68284436 2.11144749 4.39463851 3.57390964 5.84375 6.7109375 C5.77476135 11.11366766 2.97099287 13.24928642 -0.01171875 16.265625 C-0.57181641 16.86310547 -1.13191406 17.46058594 -1.70898438 18.07617188 C-3.15380794 19.58659077 -4.67194124 21.02613384 -6.19921875 22.453125 C-6.85921875 22.453125 -7.51921875 22.453125 -8.19921875 22.453125 C-9.86588542 20.78645833 -11.53255208 19.11979167 -13.19921875 17.453125 C-20.85665995 11.75077517 -27.78867958 10.48296632 -37.19921875 11.453125 C-44.20069176 13.35475964 -50.3099916 17.38427256 -54.51953125 23.3125 C-58.53481751 30.78149402 -58.58595355 40.1583194 -56.46875 48.2421875 C-53.5648544 55.33006329 -48.67368792 59.51214377 -42.19921875 63.453125 C-35.47489226 65.69456716 -26.91226168 65.58573347 -20.32421875 62.890625 C-15.69582766 60.48525102 -11.92360064 57.06587692 -8.19921875 53.453125 C-3.27985973 57.56932336 1.32726081 61.85722862 5.80078125 66.453125 C1.29740665 76.20335586 -7.78388713 80.39340832 -17.19921875 84.453125 C-28.54524834 87.86319757 -44.78000823 86.91157119 -55.19921875 81.453125 C-58.76451334 79.36258942 -62.00063999 77.06761547 -65.19921875 74.453125 C-66.17181641 73.66808594 -66.17181641 73.66808594 -67.1640625 72.8671875 C-74.44763358 66.33269266 -79.50359013 55.85300044 -80.41821289 46.12353516 C-81.18232286 29.6193978 -79.30244366 17.32554509 -68.19921875 4.453125 C-50.00808386 -14.87038977 -20.85299422 -14.66747018 0 0 Z " fill="#1F1D1D" transform="translate(1826.19921875,1175.546875)"/>
<path d="M0 0 C6.13093249 5.6656385 8.15235495 11.4607891 9.75 19.6171875 C9.75 24.8971875 9.75 30.1771875 9.75 35.6171875 C-7.08 35.6171875 -23.91 35.6171875 -41.25 35.6171875 C-38.15040972 41.81636807 -36.5204258 44.18959267 -30.25 46.6171875 C-21.39008944 48.11776145 -14.53534227 45.47408235 -7.25 40.6171875 C-5.97599623 41.86395603 -4.70593346 43.1147523 -3.4375 44.3671875 C-2.72980469 45.06328125 -2.02210938 45.759375 -1.29296875 46.4765625 C0.60002038 48.46003868 2.31829873 50.27699804 3.75 52.6171875 C2.58205185 56.12103195 1.74745458 56.61888445 -1.25 58.6171875 C-1.971875 59.1121875 -2.69375 59.6071875 -3.4375 60.1171875 C-10.47094867 63.86836012 -17.13495778 65.17637121 -25.0625 65.1171875 C-25.93471191 65.11291748 -26.80692383 65.10864746 -27.70556641 65.10424805 C-37.58036035 64.84525206 -46.34055941 61.85564907 -53.25 54.6171875 C-61.63695193 44.20080029 -63.27430557 33.80512173 -62.25 20.6171875 C-60.63484448 10.61668291 -55.0950017 3.5528677 -47.45703125 -2.84375 C-32.93446767 -12.97098903 -13.42107076 -10.87756138 0 0 Z M-40.25 16.3046875 C-41.38230372 18.50323059 -41.38230372 18.50323059 -41.25 20.6171875 C-31.35 20.6171875 -21.45 20.6171875 -11.25 20.6171875 C-13.5845947 13.01224285 -13.5845947 13.01224285 -19.23046875 9.24609375 C-27.70256396 6.6077817 -34.98188095 9.22565253 -40.25 16.3046875 Z " fill="#1F1D1D" transform="translate(924.25,1196.3828125)"/>
<path d="M0 0 C6.71822187 6.6893883 9.20929176 14.52077087 9.8203125 23.8125 C9.8203125 27.7725 9.8203125 31.7325 9.8203125 35.8125 C-15.4246875 36.3075 -15.4246875 36.3075 -41.1796875 36.8125 C-36.82019435 43.42926462 -36.82019435 43.42926462 -30.1796875 46.8125 C-22.78061334 47.89475264 -17.47394053 46.65353637 -11.1796875 42.8125 C-9.8596875 42.1525 -8.5396875 41.4925 -7.1796875 40.8125 C-3.5496875 44.7725 0.0803125 48.7325 3.8203125 52.8125 C0.33615841 57.16769261 -1.05415591 58.64807417 -5.6796875 61.0625 C-6.618125 61.56265625 -7.5565625 62.0628125 -8.5234375 62.578125 C-17.14452331 66.58439429 -29.29615388 66.04705442 -38.4375 64.12890625 C-40.87113754 63.20961684 -42.96810746 62.17772537 -45.1796875 60.8125 C-46.24703125 60.17634766 -46.24703125 60.17634766 -47.3359375 59.52734375 C-54.34910225 54.83009348 -59.33295654 47.68906676 -61.70703125 39.5859375 C-63.84532559 27.03892113 -62.7182024 15.20818922 -55.4921875 4.5 C-49.45262287 -2.92394847 -41.07403413 -6.82726616 -31.9296875 -8.9375 C-20.10891277 -9.72555165 -9.35633486 -7.57597964 0 0 Z M-39.0546875 14.8125 C-41.46869617 17.60778553 -41.46869617 17.60778553 -41.1796875 20.8125 C-31.6096875 20.8125 -22.0396875 20.8125 -12.1796875 20.8125 C-13.36237071 13.71640072 -13.82502322 13.6372602 -19.1796875 9.8125 C-26.20239563 6.30114594 -34.13872222 9.29233787 -39.0546875 14.8125 Z " fill="#1F1D1D" transform="translate(841.1796875,1196.1875)"/>
<path d="M0 0 C6.16332143 5.47596217 8.93461181 10.88344614 10 19 C10.13489043 22.76869379 10.11635406 26.53400447 10.09765625 30.3046875 C10.0962413 31.38380402 10.09482635 32.46292053 10.09336853 33.57473755 C10.08778844 37.00818702 10.07523955 40.44157036 10.0625 43.875 C10.05748243 46.20833239 10.05291997 48.5416658 10.04882812 50.875 C10.03782552 56.58335867 10.02057456 62.29166813 10 68 C3.4 68 -3.2 68 -10 68 C-10.33 66.35 -10.66 64.7 -11 63 C-11.47050781 63.34933594 -11.94101562 63.69867187 -12.42578125 64.05859375 C-13.04839844 64.51363281 -13.67101562 64.96867187 -14.3125 65.4375 C-14.92738281 65.88996094 -15.54226563 66.34242187 -16.17578125 66.80859375 C-21.85804825 70.51971031 -30.44425944 69.73961368 -37 69 C-43.95941298 67.02299478 -49.0947728 63.06266041 -53 57 C-56.06558497 51.00817482 -56.11315282 43.05934173 -54.34765625 36.62109375 C-51.70773995 30.65012427 -47.69218851 27.68320358 -41.875 25.03125 C-32.09542175 21.64601138 -21.20058938 22.73678511 -11 23 C-12.87702327 18.10437307 -12.87702327 18.10437307 -16 14 C-23.8580083 11.77721677 -30.70371621 13.8571563 -38 17 C-38.99 17.66 -39.98 18.32 -41 19 C-42.94921875 18.9609375 -42.94921875 18.9609375 -45 18 C-46.95703125 15.6015625 -46.95703125 15.6015625 -48.8125 12.625 C-49.43769531 11.64789062 -50.06289063 10.67078125 -50.70703125 9.6640625 C-52 7 -52 7 -51 4 C-37.19726731 -5.58453771 -14.78419813 -9.07801639 0 0 Z M-34 42 C-34.50095023 44.87306228 -34.50095023 44.87306228 -34 48 C-31.82202763 50.758765 -30.13267929 51.81530354 -26.65234375 52.3828125 C-20.97046604 52.63991104 -17.36632062 51.92968855 -13 48 C-10.61973982 44.75419066 -10.9465217 41.92530745 -11 38 C-13.72977064 37.91873891 -16.4571017 37.85938337 -19.1875 37.8125 C-19.95642578 37.78736328 -20.72535156 37.76222656 -21.51757812 37.73632812 C-26.63528794 37.67043487 -30.19956071 38.19956071 -34 42 Z " fill="#1F1D1D" transform="translate(445,1192)"/>
<path d="M0 0 C6.85388705 7.17267249 7.25170072 14.96354988 7.078125 24.50390625 C7.07246521 25.68975815 7.06680542 26.87561005 7.06097412 28.09739685 C7.03871801 31.8570216 6.9885393 35.61566694 6.9375 39.375 C6.9174212 41.93553304 6.89917286 44.49608113 6.8828125 47.05664062 C6.83888811 53.3089668 6.76993331 59.56056777 6.6875 65.8125 C0.4175 65.8125 -5.8525 65.8125 -12.3125 65.8125 C-12.6425 64.1625 -12.9725 62.5125 -13.3125 60.8125 C-13.78300781 61.16183594 -14.25351562 61.51117187 -14.73828125 61.87109375 C-15.36089844 62.32613281 -15.98351562 62.78117187 -16.625 63.25 C-17.23988281 63.70246094 -17.85476563 64.15492187 -18.48828125 64.62109375 C-24.17054825 68.33221031 -32.75675944 67.55211368 -39.3125 66.8125 C-46.19385134 64.85767026 -51.5063095 60.8818308 -55.3125 54.8125 C-58.4390989 48.49461394 -58.67380938 40.19812373 -56.58984375 33.484375 C-53.17417772 27.12321559 -47.85372506 24.2654594 -41.3125 21.8125 C-37.74588005 20.94716456 -34.45824842 20.69436733 -30.79296875 20.71484375 C-29.77138672 20.71806641 -28.74980469 20.72128906 -27.69726562 20.72460938 C-26.64216797 20.73298828 -25.58707031 20.74136719 -24.5 20.75 C-23.42556641 20.75451172 -22.35113281 20.75902344 -21.24414062 20.76367188 C-18.60020317 20.77542271 -15.95638048 20.79185213 -13.3125 20.8125 C-15.50623771 15.25189397 -15.50623771 15.25189397 -19.7421875 11.30859375 C-27.93686821 9.72694565 -34.73990671 12.03572222 -41.90234375 15.94921875 C-44.3125 16.8125 -44.3125 16.8125 -46.421875 16.23046875 C-48.69000448 14.52937164 -50.04829942 12.79276985 -51.625 10.4375 C-52.15738281 9.66664062 -52.68976562 8.89578125 -53.23828125 8.1015625 C-54.3125 5.8125 -54.3125 5.8125 -54.33203125 3.71875 C-51.56937532 -1.44667564 -42.87558719 -3.63114693 -37.625 -5.5 C-24.04169998 -8.31917548 -11.76944216 -7.77227313 0 0 Z M-35.3125 37.8125 C-36.98323042 40.57464972 -36.98323042 40.57464972 -37.3125 43.8125 C-36.00382936 46.75700894 -35.21847137 48.35951431 -32.3125 49.8125 C-27.74316001 50.23304103 -23.63145005 50.37375534 -19.375 48.5625 C-14.74074832 44.63040766 -14.0684452 41.83206364 -13.3125 35.8125 C-16.04193537 35.75833259 -18.77028564 35.71874775 -21.5 35.6875 C-22.26892578 35.67074219 -23.03785156 35.65398437 -23.83007812 35.63671875 C-28.06465163 35.60037048 -31.53291458 35.65170451 -35.3125 37.8125 Z " fill="#1F1D1D" transform="translate(700.3125,1194.1875)"/>
<path d="M0 0 C7.77548817 7.22249009 11.82235979 16.03205296 12.28515625 26.65625 C12.4301037 37.73437625 9.42617636 46.5285004 1.8125 54.68359375 C-6.52490033 62.51760387 -14.78356697 65.26158202 -26.125 65.12109375 C-27.44540283 65.10647095 -27.44540283 65.10647095 -28.79248047 65.09155273 C-39.67759147 64.79384202 -46.10438673 61.60050755 -53.98828125 54.05078125 C-62.26011117 45.14717746 -63.79211505 35.6796767 -63.48828125 23.9140625 C-62.90485894 13.10754481 -58.06985344 5.87770216 -50.1875 -1.31640625 C-35.34508938 -12.79166383 -14.41346247 -11.65281945 0 0 Z M-38.5 14.68359375 C-42.46125254 19.70684429 -43.35387301 25.60383829 -43.09765625 31.88671875 C-42.07843065 37.70432104 -38.52651483 41.84805111 -34.1875 45.68359375 C-30.0316941 47.94218391 -26.1191395 48.07003805 -21.50390625 47.421875 C-17.19799384 46.04950157 -14.02159034 43.13615464 -11.1875 39.68359375 C-7.85738259 33.22878824 -8.14277018 25.063602 -10.25 18.24609375 C-13.94655769 13.3570981 -17.41681286 9.60557023 -23.6875 8.62109375 C-29.78052739 8.36247629 -34.22594893 10.38889509 -38.5 14.68359375 Z " fill="#1F1D1D" transform="translate(1477.1875,1196.31640625)"/>
<path d="M0 0 C7.71319035 7.38625764 11.83361358 14.99986413 12.06860352 25.85131836 C12.03362185 38.16626517 9.87011307 46.47057268 1.05859375 55.5859375 C-9.14696812 64.90040418 -19.74038118 65.55021058 -33.0078125 64.9453125 C-37.6654735 64.55059547 -41.36727549 63.19300441 -45.3125 60.75 C-46.37984375 60.09644531 -46.37984375 60.09644531 -47.46875 59.4296875 C-55.88650975 53.68173961 -61.09861554 45.68760496 -63.3125 35.75 C-64.48915435 24.52375696 -63.06581242 14.88313341 -56.625 5.5 C-49.83955287 -2.80279586 -42.29840105 -6.63786899 -32.0625 -9 C-19.72870755 -9.82225283 -9.52144673 -8.14519042 0 0 Z M-37.04296875 13.40625 C-42.26257274 19.25815756 -42.61413473 23.82845184 -42.51953125 31.5859375 C-42.15341898 37.18123826 -40.05837261 40.2365331 -36.1875 44.0625 C-32.16256954 47.2892375 -28.4199047 48.12194244 -23.3125 47.75 C-17.22666877 46.09960509 -13.6880658 42.92085079 -10.3125 37.75 C-7.84259017 32.05846865 -7.95843753 26.71973529 -9.3125 20.75 C-11.74668572 15.9717836 -14.83894122 12.70423693 -19.3125 9.75 C-25.90923692 7.7878319 -31.88697466 8.47139336 -37.04296875 13.40625 Z " fill="#1F1D1D" transform="translate(276.3125,1196.25)"/>
<path d="M0 0 C7.26 0 14.52 0 22 0 C22 24.42 22 48.84 22 74 C34.87 74 47.74 74 61 74 C61 80.27 61 86.54 61 93 C40.87 93 20.74 93 0 93 C0 62.31 0 31.62 0 0 Z " fill="#1F1D1D" transform="translate(1674,1167)"/>
<path d="M0 0 C7.26 0 14.52 0 22 0 C27.28 13.53 32.56 27.06 38 41 C42.10919231 31.99036697 42.10919231 31.99036697 45.859375 22.87109375 C46.57287109 21.04288086 46.57287109 21.04288086 47.30078125 19.17773438 C47.78401221 17.93105083 48.26708355 16.68430541 48.75 15.4375 C49.72260093 12.93566627 50.69711482 10.43458803 51.671875 7.93359375 C52.0956543 6.84103271 52.51943359 5.74847168 52.95605469 4.62280273 C54 2 54 2 55 0 C62.26 0 69.52 0 77 0 C72.29227843 12.64096199 67.46593132 25.23377316 62.59448242 37.8125 C61.30181618 41.1526058 60.01322563 44.49426747 58.72460938 47.8359375 C57.89608377 49.97665944 57.06731656 52.1172879 56.23828125 54.2578125 C55.85698563 55.2484671 55.47569 56.2391217 55.08283997 57.25979614 C54.72203842 58.18871674 54.36123688 59.11763733 53.98950195 60.07470703 C53.67672806 60.88360382 53.36395416 61.69250061 53.04170227 62.52590942 C51.8272865 65.41020247 50.39956794 68.20086413 49 71 C41.74 71 34.48 71 27 71 C24.21740038 63.92322626 21.43521706 56.84628912 18.65372944 49.76907825 C17.36160712 46.48145171 16.06931552 43.19389194 14.77661133 39.90649414 C13.28413657 36.11104859 11.7924444 32.31529585 10.30078125 28.51953125 C9.84536453 27.36169632 9.38994781 26.20386139 8.92073059 25.01094055 C7.61028873 21.67533171 6.30476453 18.33783308 5 15 C4.28630753 13.18718033 4.28630753 13.18718033 3.55819702 11.33773804 C3.09966339 10.16369415 2.64112976 8.98965027 2.16870117 7.7800293 C1.75246994 6.71866257 1.33623871 5.65729584 0.90739441 4.56376648 C0 2 0 2 0 0 Z " fill="#1F1D1D" transform="translate(1219,1189)"/>
<path d="M0 0 C-1.76429199 4.97209562 -4.3939166 9.43438061 -7 14 C-7.66 13.731875 -8.32 13.46375 -9 13.1875 C-9.99 12.795625 -10.98 12.40375 -12 12 C-13.19625 11.46375 -14.3925 10.9275 -15.625 10.375 C-20.60329386 8.50695449 -25.74807198 8.3466907 -31 9 C-31.99 9.66 -32.98 10.32 -34 11 C-34.05983142 12.94092354 -34.05983142 12.94092354 -33 15 C-30.57727664 16.13669913 -28.34204948 16.99660086 -25.8125 17.8125 C-4.186108 25.41102802 -4.186108 25.41102802 -0.125 31.0625 C2.49088008 37.35204774 2.21145603 45.99880982 -0.29296875 52.203125 C-1.9230868 54.87398204 -3.38851603 56.66134675 -5.75 58.6875 C-6.38421875 59.24824219 -7.0184375 59.80898437 -7.671875 60.38671875 C-13.74514629 64.59521043 -18.89096414 65.52969993 -26.125 65.4375 C-27.37579346 65.42614014 -27.37579346 65.42614014 -28.65185547 65.41455078 C-39.92400137 65.11717277 -49.07620247 61.91767251 -58 55 C-57.37606349 51.23880524 -55.65226285 48.81039958 -53.4375 45.75 C-52.79683594 44.85796875 -52.15617187 43.9659375 -51.49609375 43.046875 C-50.75552734 42.03367187 -50.75552734 42.03367187 -50 41 C-46.98863011 42.15901522 -44.18268437 43.41681233 -41.375 45 C-35.39043507 48.01495127 -29.01410343 49.51967301 -22.375 48.375 C-19.8207015 47.25435779 -19.8207015 47.25435779 -19.3515625 44.9140625 C-19.23554687 44.28242187 -19.11953125 43.65078125 -19 43 C-24.13419802 39.3632764 -29.17721412 37.09128682 -35.0625 35 C-48.41268402 30.16705009 -48.41268402 30.16705009 -52.4375 23.3125 C-54.79056661 17.90350273 -55.03229493 12.44505529 -53.33984375 6.796875 C-50.45993888 0.26410379 -45.59125762 -4.15555895 -39 -6.8125 C-25.63922114 -11.12160616 -11.0363335 -8.90194824 0 0 Z " fill="#1F1D1D" transform="translate(1400,1196)"/>
<path d="M0 0 C6.93 0 13.86 0 21 0 C21 24.42 21 48.84 21 74 C33.87 74 46.74 74 60 74 C60 80.27 60 86.54 60 93 C40.2 93 20.4 93 0 93 C0 62.31 0 31.62 0 0 Z " fill="#1F1D1D" transform="translate(1598,1167)"/>
<path d="M0 0 C6.93 0 13.86 0 21 0 C21 32.34 21 64.68 21 98 C14.07 98 7.14 98 0 98 C0 65.66 0 33.32 0 0 Z " fill="#1F1D1D" transform="translate(474,1162)"/>
<path d="M0 0 C6.93 0 13.86 0 21 0 C21 32.34 21 64.68 21 98 C14.07 98 7.14 98 0 98 C0 65.66 0 33.32 0 0 Z " fill="#1F1D1D" transform="translate(176,1162)"/>
<path d="M0 0 C0 6.6 0 13.2 0 20 C-4.1015625 20.68359375 -4.1015625 20.68359375 -8.203125 21.3671875 C-11.58487243 22.13233147 -14.06098237 22.78971061 -16.23046875 25.5859375 C-16.54628906 26.17632813 -16.86210938 26.76671875 -17.1875 27.375 C-17.51105469 27.96023438 -17.83460937 28.54546875 -18.16796875 29.1484375 C-20.27832082 33.84471395 -20.2118605 38.63264038 -20.31640625 43.703125 C-20.33718735 44.54091492 -20.35796844 45.37870483 -20.37937927 46.24188232 C-20.4446255 48.91117356 -20.50364358 51.58056098 -20.5625 54.25 C-20.60570894 56.06250984 -20.64932399 57.87501005 -20.69335938 59.6875 C-20.8010436 64.12490296 -20.90030207 68.56238168 -21 73 C-27.93 73 -34.86 73 -42 73 C-42 49.57 -42 26.14 -42 2 C-35.07 2 -28.14 2 -21 2 C-20.67 3.98 -20.34 5.96 -20 8 C-18.948125 7.21625 -17.89625 6.4325 -16.8125 5.625 C-11.61566495 1.93086424 -6.47070401 0 0 0 Z " fill="#1F1D1D" transform="translate(1547,1187)"/>
<path d="M0 0 C0 6.6 0 13.2 0 20 C-2.536875 20.3403125 -2.536875 20.3403125 -5.125 20.6875 C-10.62586324 21.71272515 -13.31786754 22.76554767 -17 27 C-19.63741825 32.86392466 -20.46006757 37.70870357 -20.51171875 44.09375 C-20.52966995 44.92588013 -20.54762115 45.75801025 -20.56611633 46.61535645 C-20.61980627 49.24352114 -20.65398071 51.87150865 -20.6875 54.5 C-20.72070969 56.29429528 -20.75520267 58.08856729 -20.79101562 59.8828125 C-20.87789819 64.25522797 -20.93831672 68.62686793 -21 73 C-27.93 73 -34.86 73 -42 73 C-42 49.57 -42 26.14 -42 2 C-35.07 2 -28.14 2 -21 2 C-20.67 3.98 -20.34 5.96 -20 8 C-19.3709375 7.59007812 -18.741875 7.18015625 -18.09375 6.7578125 C-12.33640088 3.13345718 -7.00628816 0 0 0 Z " fill="#1F1D1D" transform="translate(991,1187)"/>
<path d="M0 0 C0 6.6 0 13.2 0 20 C-1.711875 20.2475 -3.42375 20.495 -5.1875 20.75 C-9.80696872 21.60984976 -12.82833467 22.33276197 -16 26 C-19.41629266 32.71057487 -20.14855074 38.71443414 -20.31640625 46.14453125 C-20.33718735 46.91431808 -20.35796844 47.68410492 -20.37937927 48.47721863 C-20.44446049 50.92222667 -20.50356591 53.36733683 -20.5625 55.8125 C-20.60572468 57.47592177 -20.64934021 59.13933344 -20.69335938 60.80273438 C-20.80083048 64.86838671 -20.90021085 68.93412289 -21 73 C-27.6 73 -34.2 73 -41 73 C-41 49.57 -41 26.14 -41 2 C-34.4 2 -27.8 2 -21 2 C-20.67 4.31 -20.34 6.62 -20 9 C-19.53851562 8.60167969 -19.07703125 8.20335937 -18.6015625 7.79296875 C-13.22612634 3.42675479 -7.13242338 0 0 0 Z " fill="#1F1D1D" transform="translate(768,1187)"/>
<path d="M0 0 C6.6 0 13.2 0 20 0 C20 23.43 20 46.86 20 71 C13.4 71 6.8 71 0 71 C0 47.57 0 24.14 0 0 Z " fill="#1F1D1D" transform="translate(1307,1189)"/>
<path d="M0 0 C3.57236674 1.9270028 5.69560702 4.08682105 7 8 C7.39308695 12.79566077 7.48270142 15.06907584 5.25 19.375 C1.8538211 23.33720871 0.34221819 23.87010792 -4.875 24.375 C-9.18785966 24.26235068 -11.70279071 22.82617939 -15 20 C-17.34781141 17.01187638 -17.41825081 13.78088812 -17.3203125 10.03125 C-16.78643864 6.64570842 -15.19273902 4.55819552 -13 2 C-8.81582151 -0.54727184 -4.77861365 -0.82674977 0 0 Z " fill="#1E1D1D" transform="translate(1322,1160)"/>
</svg>
